<svg width="405.21388" height="253.00593" xmlns="http://www.w3.org/2000/svg" version="1.1">
    <g id="svg_1" fill-rule="nonzero" stroke-miterlimit="10" stroke-dashoffset="0">
        <!--タブレット背景-->
        <path id="svg_2"
            d="m383.24021,247.00592l-361.33246,0c-8.77227,0 -15.90775,-7.13243 -15.90775,-15.91084l0,-209.18733c0,-8.7692 7.1355,-15.90775 15.90775,-15.90775l361.33553,0c8.77227,0 15.90776,7.1386 15.90776,15.90775l0,209.18734c0,8.77841 -7.1386,15.91084 -15.91086,15.91084l0.00003,-0.00001z"
            fill="#b6b6c1" stroke="#7b7d8c" stroke-width="12" />
        <!--カラー背景-->
        <path id="svg_3"
            d="m15.30679,246.61684l0,-178.29877c0,-25.25407 20.54922,-45.81206 45.81206,-45.81206l282.8602,0c25.26291,0 45.8121,20.55816 45.8121,45.81206l0,178.2988l-374.48436,-0.00003z"
            fill="#9494a6" stroke-width="0" class="profileView_bg"/>
        <!--情報線-->
        <g id="svg_4" fill="none" stroke-linecap="round">
            <path id="svg_5" d="m119.82542,228.05656l-75.76501,0" stroke="#60bf69" stroke-width="20" />
            <path id="svg_6" d="m147.24956,228.05656l42.29826,0" stroke="#60bf69" stroke-width="20" />
            <path id="svg_7" d="m88.8895,185.13012l-33.29966,0" stroke="#e1e1e1" stroke-width="12.5" />
            <path id="svg_8" d="m88.88949,157.07723l-33.29965,0" stroke="#e1e1e1"
                stroke-width="12.5" />
            <path id="svg_9" d="m127.22606,129.02435l-71.63622,0" stroke="#e1e1e1"
                stroke-width="12.5" />
            <path id="svg_10" d="m55.58984,100.97145l113.61057,0" stroke="#e1e1e1"
                stroke-width="12.5" />
            <path id="svg_11" d="m205.93347,82.46021l-68.27828,0" stroke="#aaff88"
                stroke-width="7.5" />
            <path id="svg_12" d="m347.18602,40.20602l-214.61784,0" stroke="#b5b5b5"
                stroke-width="25" />
            <path id="svg_13" d="m137.65519,63.43183l68.27828,0" stroke="#e1e1e1" stroke-width="7.5" />
            <path id="svg_14" d="m258.80173,40.20602l-110.51304,0" stroke="#e1e1e1"
                stroke-width="12.5" />
            <path id="svg_15" d="m224.68201,82.46021l31.62068,0" stroke="#ffab19" stroke-width="7.5" />
        </g>
        <!--最前面枠-->
        <path id="svg_16"
            d="m383.24021,247.00592l-361.33246,0c-8.77227,0 -15.90775,-7.13243 -15.90775,-15.91084l0,-209.18733c0,-8.7692 7.1355,-15.90775 15.90775,-15.90775l361.33553,0c8.77227,0 15.90776,7.1386 15.90776,15.90775l0,209.18734c0,8.77841 -7.1386,15.91084 -15.91086,15.91084l0.00003,-0.00001z"
            fill="none" stroke="#7b7d8c" stroke-width="12" />
    </g>
</svg>